<?xml version="1.0" encoding="UTF-8"?>
<svg xmlns="http://www.w3.org/2000/svg" xmlns:xlink="http://www.w3.org/1999/xlink" width="1000pt" height="1000pt" viewBox="0 0 1000 1000" version="1.1">
<g id="surface4">
<path style="fill:none;stroke-width:9;stroke-linecap:round;stroke-linejoin:round;stroke:rgb(0%,0%,0%);stroke-opacity:1;stroke-miterlimit:10;" d="M 203.988281 280.21875 L 236.867188 312.390625 L 304.011719 243.78125 L 271.132812 211.609375 L 203.988281 280.21875 L 214.59375 280.105469 L 236.75 301.785156 L 293.40625 243.894531 L 271.25 222.214844 L 214.59375 280.105469 M 437.988281 280.21875 L 470.867188 312.390625 L 538.011719 243.78125 L 505.132812 211.609375 L 437.988281 280.21875 L 448.59375 280.105469 L 470.75 301.785156 L 527.40625 243.894531 L 505.25 222.214844 L 448.59375 280.105469 M 671.988281 280.21875 L 704.867188 312.390625 L 772.011719 243.78125 L 739.132812 211.609375 L 671.988281 280.21875 L 682.59375 280.105469 L 704.75 301.785156 L 761.40625 243.894531 L 739.25 222.214844 L 682.59375 280.105469 M 671.988281 509.21875 L 704.867188 541.390625 L 772.011719 472.78125 L 739.132812 440.609375 L 671.988281 509.21875 L 682.59375 509.105469 L 704.75 530.785156 L 761.40625 472.894531 L 739.25 451.214844 L 682.59375 509.105469 M 671.988281 738.21875 L 704.867188 770.390625 L 772.011719 701.78125 L 739.132812 669.609375 L 671.988281 738.21875 L 682.59375 738.105469 L 704.75 759.785156 L 761.40625 701.894531 L 739.25 680.214844 L 682.59375 738.105469 M 437.988281 738.21875 L 470.867188 770.390625 L 538.011719 701.78125 L 505.132812 669.609375 L 437.988281 738.21875 L 448.59375 738.105469 L 470.75 759.785156 L 527.40625 701.894531 L 505.25 680.214844 L 448.59375 738.105469 M 437.988281 509.21875 L 470.867188 541.390625 L 538.011719 472.78125 L 505.132812 440.609375 L 437.988281 509.21875 L 448.59375 509.105469 L 470.75 530.785156 L 527.40625 472.894531 L 505.25 451.214844 L 448.59375 509.105469 M 203.988281 509.21875 L 236.867188 541.390625 L 304.011719 472.78125 L 271.132812 440.609375 L 203.988281 509.21875 L 214.59375 509.105469 L 236.75 530.785156 L 293.40625 472.894531 L 271.25 451.214844 L 214.59375 509.105469 M 203.988281 738.21875 L 236.867188 770.390625 L 304.011719 701.78125 L 271.132812 669.609375 L 203.988281 738.21875 L 214.59375 738.105469 L 236.75 759.785156 L 293.40625 701.894531 L 271.25 680.214844 L 214.59375 738.105469 M 254 902 L 254 752.882812 M 254 687.117188 L 254 523.882812 M 254 458.117188 L 254 294.882812 M 254 229.117188 L 254 82 M 488 82 L 488 229.117188 M 488 294.882812 L 488 458.117188 M 488 523.882812 L 488 687.117188 M 488 752.882812 L 488 902 M 722 902 L 722 752.882812 M 722 687.117188 L 722 523.882812 M 722 458.117188 L 722 294.882812 M 722 229.117188 L 722 82 M 882 262 L 754.179688 262 M 689.820312 262 L 520.179688 262 M 455.820312 262 L 286.179688 262 M 221.820312 262 L 65 262 M 65 491 L 221.820312 491 M 286.179688 491 L 455.820312 491 M 520.179688 491 L 689.820312 491 M 754.179688 491 L 882 491 M 882 720 L 754.179688 720 M 689.820312 720 L 520.179688 720 M 455.820312 720 L 286.179688 720 M 221.820312 720 L 65 720 M 65 615.085938 L 146.792969 615.085938 L 237.5625 703.914062 M 270.4375 736.085938 L 496.832031 957.644531 C 568.714844 1016.648438 671.851562 911.261719 611.304688 840.671875 L 504.4375 736.085938 M 471.5625 703.914062 L 270.4375 507.085938 M 237.5625 474.914062 L 25.632812 267.511719 C -34.910156 196.921875 68.222656 91.535156 140.105469 150.539062 L 237.5625 245.914062 M 270.4375 278.085938 L 471.5625 474.914062 M 504.4375 507.085938 L 705.5625 703.914062 M 738.4375 736.085938 L 793.011719 789.492188 C 864.894531 848.5 968.03125 743.113281 907.484375 672.519531 L 738.4375 507.085938 M 705.5625 474.914062 L 504.4375 278.085938 M 471.5625 245.914062 L 383.277344 159.515625 C 322.730469 88.921875 425.867188 -16.464844 497.75 42.542969 L 705.5625 245.914062 M 738.4375 278.085938 L 958 492.957031 L 958 922 M 923 922 L 993 922 L 993 925 L 923 925 L 923 922 M 937 947 L 979 947 L 979 950 L 937 950 L 937 947 M 952 971 L 964 971 L 964 974 L 952 974 L 952 971 "/>
</g>
</svg>
